<?xml version="1.0"?>
<svg xmlns:rdf="http://www.w3.org/1999/02/22-rdf-syntax-ns#" xmlns="http://www.w3.org/2000/svg" xmlns:cc="http://creativecommons.org/ns#" xmlns:xlink="http://www.w3.org/1999/xlink" xmlns:dc="http://purl.org/dc/elements/1.1/" xmlns:svg="http://www.w3.org/2000/svg" id="svg2" viewBox="0 0 48 48" version="1.1">
  <defs id="defs4">
    <linearGradient id="linearGradient3651">
      <stop id="stop3653" stop-color="#555" offset="0"/>
      <stop id="stop3655" offset="1"/>
    </linearGradient>
    <linearGradient id="linearGradient3637">
      <stop id="stop3639" stop-color="#f9f9f9" stop-opacity=".98519" offset="0"/>
      <stop id="stop3641" stop-color="#d5d5d5" offset="1"/>
    </linearGradient>
    <radialGradient id="radialGradient3643" xlink:href="#linearGradient3637" gradientUnits="userSpaceOnUse" cy="1019.9" cx="19.253" gradientTransform="matrix(.60051 .96932 -1.1474 .71086 1176.9 277.46)" r="18.408"/>
    <radialGradient id="radialGradient3657" xlink:href="#linearGradient3651" gradientUnits="userSpaceOnUse" cy="17.538" cx="24.035" gradientTransform="matrix(-.0000017243 2.8731 -1.3421 -.0000024619 48.005 -53.315)" r="1.5329"/>
    <radialGradient id="radialGradient3665" xlink:href="#linearGradient3651" gradientUnits="userSpaceOnUse" cy="17.538" cx="24.035" gradientTransform="matrix(-1.6058e-7 2.8731 -1.6061 -.0000024619 52.635 -53.315)" r="1.5329"/>
    <filter id="filter3679" y="-.1599" width="1.4239" x="-.21196" height="1.3198">
      <feGaussianBlur id="feGaussianBlur3681" stdDeviation="0.16189249"/>
    </filter>
    <filter id="filter3683" y="-.1599" width="1.4239" x="-.21196" height="1.3198">
      <feGaussianBlur id="feGaussianBlur3685" stdDeviation="0.16189249"/>
    </filter>
    <filter id="filter3737" y="-.17068" width="1.2485" x="-.12424" height="1.3414">
      <feGaussianBlur id="feGaussianBlur3739" stdDeviation="0.75508553"/>
    </filter>
    <radialGradient id="radialGradient3801" xlink:href="#linearGradient3637" gradientUnits="userSpaceOnUse" cy="1025.5" cx="9.3036" gradientTransform="matrix(1.2156 1.1204 -.86111 .93425 881.15 59.348)" r="3.6741"/>
    <radialGradient id="radialGradient3805" xlink:href="#linearGradient3637" gradientUnits="userSpaceOnUse" cy="1025.5" cx="9.3036" gradientTransform="matrix(1.4356 1.9782 -1.5516 1.126 1610.3 -147.04)" r="3.6741"/>
    <filter id="filter3822" y="-.046077" width="1.2145" x="-.10727" height="1.0922">
      <feGaussianBlur id="feGaussianBlur3824" stdDeviation="0.16308908"/>
    </filter>
    <filter id="filter3638" y="-.33834" width="1.121" x="-.060497" height="1.6767">
      <feGaussianBlur id="feGaussianBlur3640" stdDeviation="0.84014171"/>
    </filter>
  </defs>
  <g id="layer1" transform="translate(0 -1004.4)">
    <path id="path3797" style="color:#000000" fill="url(#radialGradient3801)" d="m12.643 1023.8c-1.9847-1.4701-6.1746 0-3.3813 1.3966-2.7597-0.4003-2.5888 5.7552 0.73507 4.778-2.967 1.2181 1.641 4.3923 3.7489 1.1026 1.4111-2.1944 1.3723-6.0749-1.1026-7.2772z"/>
    <path id="path3759" d="m40.87 43.934c-5.2925 1.0317-5.5147-1.596-10.88-1.6243-3.2616-0.0172-4.4034 2.9566-9.6649 2.2904-2.575-0.326-3.365-1.855-5.116-2.074-4.089-0.513-5.9471 1.179-7.3438-1.057-0.96-1.536 7.3938-2.731 16.061-2.731 8.6674 0 18.93 5.2303 16.943 5.196z" fill-opacity=".76863" fill-rule="evenodd" transform="matrix(1 0 0 1.1034 -.29403 998.88)" filter="url(#filter3638)"/>
    <path id="path3635" style="color:#000000" fill="url(#radialGradient3643)" d="m7.4093 1044.8c-1.8666-1.3597 6.5147-5.8394 4.3595-21.798-0.8719-4.3595 4.3595-11.335 7.8471-12.207 1.6917-0.423 8.719-1.7438 12.207 2.6157 3.176 3.9699 4.7929 16.986 4.4685 19.581-0.90823 7.2659 4.5412 9.9905 4.2505 13.551-0.14188 1.738-2.6157 1.7438-5.2314 0s-6.3939-2.5794-9.0096-0.8356-6.1221 3.9862-8.1741 0.9083c-3.6329-5.4494-6.658 1.1404-10.717-1.8165z"/>
    <path id="path3755" style="color:#000000" transform="translate(0 1004.4)" fill="#fff" d="m15.733 27.14 0.35355 4.552s1.812-4.3752 1.6352-4.4194c-0.17678-0.04419-1.812-0.13258-1.9887-0.13258z"/>
    <path id="path3659" fill-rule="evenodd" transform="matrix(1.1008 0 0 1.1008 -10.03 1004.5)" d="m26 17.373c0 2.003-0.686 3.627-1.533 3.627s-1.533-1.624-1.533-3.627c0-2.0032 0.68631-3.6271 1.5329-3.6271 0.84661 0 1.5329 1.6239 1.5329 3.6271z"/>
    <path id="path3647" fill-rule="evenodd" fill="url(#radialGradient3657)" transform="matrix(.90823 0 0 .90823 -5.4278 1007.6)" d="m26 17.373c0 2.003-0.686 3.627-1.533 3.627s-1.533-1.624-1.533-3.627c0-2.0032 0.68631-3.6271 1.5329-3.6271 0.84661 0 1.5329 1.6239 1.5329 3.6271z"/>
    <path id="path3661" fill-rule="evenodd" transform="matrix(1.1008 0 0 1.1008 -2.2158 1004.5)" d="m26 17.373c0 2.003-0.686 3.627-1.533 3.627s-1.533-1.624-1.533-3.627c0-2.0032 0.68631-3.6271 1.5329-3.6271 0.84661 0 1.5329 1.6239 1.5329 3.6271z"/>
    <path id="path3663" fill-rule="evenodd" fill="url(#radialGradient3665)" transform="matrix(.90823 0 0 .90823 2.386 1007.6)" d="m26 17.373c0 2.003-0.686 3.627-1.533 3.627s-1.533-1.624-1.533-3.627c0-2.0032 0.68631-3.6271 1.5329-3.6271 0.84661 0 1.5329 1.6239 1.5329 3.6271z"/>
    <path id="path3667" style="color:#000000" d="m17.421 1020.7c-1.2993 0.2707-1.3298 1.3871-1.8331 2.1884 0 0 0.03369-3.34 1.8331-2.1884z" fill-opacity=".86161" filter="url(#filter3679)" fill="#fff"/>
    <path id="path3669" style="color:#000000" d="m25.213 1020.7c-1.2993 0.2706-1.3298 1.3871-1.8331 2.1884 0 0 0.03369-3.34 1.8331-2.1884z" fill-opacity=".86161" filter="url(#filter3683)" fill="#fff"/>
    <path id="path3699" style="color:#000000" d="m12.64 17.241c-0.068-1.198 1.199-6.106 5.833-9.2809 2.384-1.6332 6.36-1.6052 8.751-0.7955-5.665 0.1412-13.389 4.0414-14.584 10.076z" transform="translate(0 1004.4)" filter="url(#filter3737)" fill="#fff"/>
    <path id="path3741" style="color:#000000" transform="translate(0 1004.4)" d="m22.716 14.412c1.1617-1.116 2.5398-2.0944 4.9056-1.1049l-0.26516 1.4142c-2.332-1.086-2.949-0.598-4.641-0.309z"/>
    <path id="path3743" style="color:#000000" d="m19.064 1019.8c-0.82254-1.3851-1.8903-2.6952-4.4342-2.3714l-0.12103 1.4338c2.5363-0.4268 3.0008 0.2078 4.5552 0.9376z"/>
    <path id="path3757" style="color:#000000" fill="#fff" d="m23.948 1032.9 0.45648 4.3911s1.7159-4.3511 1.5367-4.384c-0.1792-0.033-1.8167-0.018-1.9931-0.01z"/>
    <path id="path3745" style="block-progression:tb;color:#000000;text-transform:none;text-indent:0" d="m28.444 1031.8c-0.73056 0.9812-2.235 0.8157-3.2567 0.9072-1.0216 0.091-2.2137-0.1555-3.4688-0.4687-2.5101-0.6266-5.2791-1.6241-7.5938-0.375l0.15939 0.08c1.8003-0.9715 4.6924 0.3139 7.2598 0.9548 1.2837 0.3204 2.5484 0.4337 3.7812 0.3233 1.2329-0.1104 2.3787-0.1628 3.2683-1.3576l-0.14959-0.063z"/>
    <path id="path3803" style="color:#000000" fill="url(#radialGradient3805)" d="m35.798 1022c-1.9847-1.4701-6.1746 0-3.3813 1.3966-2.7597-0.4003-2.5888 5.7552 0.73507 4.778-2.967 1.2181 1.641 4.3923 3.7489 1.1026 1.4111-2.1944 1.3723-6.0749-1.1026-7.2772z"/>
    <path id="path3807" style="color:#000000" d="m34.375 1021.8c-1.8399-0.259-2.5852 0.4004-2.5312 1.1563 0.60539-0.5285 1.5112-0.8767 2.5312-1.1563zm-2.1562 1.875c-2.4375 0.2188-1.1562 3.5938-1.1562 3.5938-0.27526-2.189 0.45833-3.0209 1.1562-3.5938zm1 4.75c-1.6875 0.6875-0.21875 1.8125-0.21875 1.8125-0.505-1.0149-0.06142-1.3412 0.21875-1.8125z" fill-opacity=".99107" filter="url(#filter3822)" fill="#fff"/>
    <path id="path3826" style="color:#000000" d="m11.22 1023.5c-1.8399-0.259-2.5852 0.4004-2.5312 1.1563 0.60539-0.5285 1.5112-0.8767 2.5312-1.1563zm-2.1562 1.875c-2.4375 0.2188-1.1562 3.5938-1.1562 3.5938-0.27526-2.189 0.45833-3.0209 1.1562-3.5938zm1 4.75c-1.6875 0.6875-0.21875 1.8125-0.21875 1.8125-0.505-1.0149-0.06142-1.3412 0.21875-1.8125z" fill-opacity=".99107" filter="url(#filter3822)" fill="#fff"/>
  </g>
  <metadata>
    <rdf:RDF>
      <cc:Work>
        <dc:format>image/svg+xml</dc:format>
        <dc:type rdf:resource="http://purl.org/dc/dcmitype/StillImage"/>
        <cc:license rdf:resource="http://creativecommons.org/licenses/publicdomain/"/>
        <dc:publisher>
          <cc:Agent rdf:about="http://openclipart.org/">
            <dc:title>Openclipart</dc:title>
          </cc:Agent>
        </dc:publisher>
        <dc:title>Halloween Icon</dc:title>
        <dc:date>2010-11-05T11:21:33</dc:date>
        <dc:description>Halloween - ghost\n\nPart of the "Events" set made for WorldLabel.com</dc:description>
        <dc:source>http://openclipart.org/detail/94033/halloween-icon-by-nicubunu-94033</dc:source>
        <dc:creator>
          <cc:Agent>
            <dc:title>nicubunu</dc:title>
          </cc:Agent>
        </dc:creator>
        <dc:subject>
          <rdf:Bag>
            <rdf:li>clip art</rdf:li>
            <rdf:li>clipart</rdf:li>
            <rdf:li>color</rdf:li>
            <rdf:li>event</rdf:li>
            <rdf:li>events</rdf:li>
            <rdf:li>ghost</rdf:li>
            <rdf:li>halloween</rdf:li>
            <rdf:li>halloween2010</rdf:li>
            <rdf:li>holiday</rdf:li>
            <rdf:li>holidays</rdf:li>
            <rdf:li>horror</rdf:li>
            <rdf:li>icon</rdf:li>
            <rdf:li>occasion</rdf:li>
            <rdf:li>occasions</rdf:li>
            <rdf:li>worldlabel</rdf:li>
          </rdf:Bag>
        </dc:subject>
      </cc:Work>
      <cc:License rdf:about="http://creativecommons.org/licenses/publicdomain/">
        <cc:permits rdf:resource="http://creativecommons.org/ns#Reproduction"/>
        <cc:permits rdf:resource="http://creativecommons.org/ns#Distribution"/>
        <cc:permits rdf:resource="http://creativecommons.org/ns#DerivativeWorks"/>
      </cc:License>
    </rdf:RDF>
  </metadata>
</svg>
